<svg id="Capa_1" enable-background="new 0 0 512 512" height="512" viewBox="0 0 512 512" width="512" xmlns="http://www.w3.org/2000/svg"><g><path d="m189.983 172.72-30.272-17.465c-4.672 11.74-7.244 24.534-7.244 37.919 0 13.392 2.575 26.193 7.251 37.937l30.265-17.48z"/><path d="m255.335 60.383c44.78 0 84.451 22.283 108.516 56.341h114.174v-53.887h-14.962c-26.398 0-47.875-21.477-47.875-47.876v-14.961h-318.376v14.962c0 26.399-21.477 47.876-47.875 47.876h-14.962v53.887h112.844c24.065-34.059 63.735-56.342 108.516-56.342z"/><path d="m335.949 256.999-30.222-17.452-35.425 20.453v34.95c26.487-3.879 49.726-17.885 65.647-37.951z"/><path d="m270.3 126.347 35.429 20.455 30.226-17.444c-15.921-20.071-39.164-34.081-65.655-37.959z"/><path d="m204.942 146.804 35.43-20.455v-34.951c-26.494 3.878-49.74 17.89-65.662 37.964z"/><path d="m240.374 294.95v-34.952l-35.426-20.453-30.225 17.457c15.923 20.067 39.164 34.072 65.651 37.948z"/><path d="m122.544 193.174c0-16.363 2.983-32.04 8.42-46.527h-96.989v64.864c0 104.978 52.445 201.146 137.377 258.29v-173.845c-29.772-24.372-48.808-61.394-48.808-102.782z"/><path d="m255.338 234.086 35.425-20.452v-40.918l-35.427-20.454-35.43 20.455v40.912z"/><path d="m388.126 193.174c0 41.388-19.036 78.41-48.808 102.781v174.74c85.716-57.032 138.707-153.658 138.707-259.185v-64.864h-98.319c5.437 14.488 8.42 30.165 8.42 46.528z"/><path d="m320.693 213.634 30.26 17.474c4.675-11.744 7.25-24.543 7.25-37.933 0-13.387-2.573-26.183-7.246-37.924l-30.263 17.466v40.917z"/><path d="m255.335 325.965c-19.241 0-37.537-4.119-54.059-11.513v173.14c7.048 3.675 54.724 24.408 54.724 24.408s46.767-20.304 53.394-23.719v-173.829c-16.522 7.394-34.818 11.513-54.059 11.513z"/></g></svg>